<svg id="svg" fill="white" stroke="white" width="204" height="204" version="1.1"
    viewBox="143 143 514 514" xmlns="http://www.w3.org/2000/svg" stroke-width="1">
    <g id="IconSvg_bgCarrier" stroke-width="0"></g>
    <g id="IconSvg_tracerCarrier" stroke-linecap="round" stroke-linejoin="round" stroke="#CCCCCC"
        stroke-width="0">
        <g xmlns="http://www.w3.org/2000/svg">
            <path
                d="m524.59 489.19c-16.34 0-29.277 12.938-29.277 29.277 0 15.66 12.938 29.277 29.277 29.277s29.277-12.938 29.277-29.277c-0.003907-16.344-12.938-29.277-29.277-29.277zm0 44.254c-8.168 0-15.66-6.8086-15.66-15.66s6.8086-15.66 15.66-15.66c8.8516 0 15.66 6.8086 15.66 15.66s-7.4922 15.66-15.66 15.66z"></path>
            <path
                d="m275.41 489.19c-16.34 0-29.277 12.938-29.277 29.277 0 15.66 12.938 29.277 29.277 29.277s29.277-12.938 29.277-29.277c0-16.344-12.938-29.277-29.277-29.277zm0 44.254c-8.168 0-15.66-6.8086-15.66-15.66s6.8086-15.66 15.66-15.66 15.66 6.8086 15.66 15.66-6.8086 15.66-15.66 15.66z"></path>
            <path
                d="m444.25 483.06h-88.508c-11.574 0-21.105 9.5312-21.105 21.105 0 11.574 9.5312 21.105 21.105 21.105h87.828c11.574 0 21.105-9.5312 21.105-21.105-0.003907-11.574-8.8555-21.105-20.426-21.105zm0 27.914h-88.508c-4.0859 0-7.4883-3.4023-7.4883-7.4883s3.4023-7.4883 7.4883-7.4883h87.828c4.0859 0 7.4883 3.4023 7.4883 7.4883-0.003906 4.0859-2.7266 7.4883-6.8086 7.4883z"></path>
            <path
                d="m609.01 385.7c0-4.0859-2.7227-6.8086-6.8086-6.8086h-17.02c-14.297 0-27.234 8.168-34.043 20.426l-18.383-34.723c-0.67969-1.3633-1.3633-2.043-2.043-3.4023-6.1289-9.5312-17.02-15.66-28.594-15.66l-95.312-0.003906v-23.828h9.5312c19.742 0 36.082-16.34 36.082-36.082v-74.211c0-20.426-16.34-36.082-36.082-36.082h-32.68c-19.742 0-36.082 16.34-36.082 36.082v74.211c0 20.426 16.34 36.082 36.082 36.082h9.5312v23.828h-95.316c-12.254 0-23.148 6.1289-29.277 16.34-0.67969 0.67969-1.3633 1.3633-1.3633 2.7227l-18.383 34.723c-6.8086-12.254-19.062-20.426-34.043-20.426l-17.016 0.003906c-4.0859 0-6.8086 2.7227-6.8086 6.8086 0 21.105 17.02 38.809 38.809 38.809h5.4453l-20.426 38.809c-2.7227 4.7656-4.0859 10.895-4.0859 16.34v93.953c0 10.211 7.4883 18.383 17.02 20.426v10.895c0 10.895 8.8516 19.742 19.742 19.742h29.277c10.895 0 19.742-8.8516 19.742-19.742v-10.895h206.29v10.895c0 10.895 8.8516 19.742 19.742 19.742h29.277c10.895 0 19.742-8.8516 19.742-19.742v-10.895c9.5312-2.043 17.02-10.211 17.02-20.426l0.007813-93.957c0-5.4453-1.3633-11.574-4.0859-16.34l-20.426-38.809h6.1289c21.105 0 38.809-17.02 38.809-38.805zm-247.14-93.273h25.871c4.0859 0 6.8086-2.7227 6.8086-6.8086 0-4.0859-2.7227-6.8086-6.8086-6.8086h-27.234v-10.211h27.234c4.0859 0 6.8086-2.7227 6.8086-6.8086 0-4.0859-2.7227-6.8086-6.8086-6.8086h-27.234v-10.211h27.234c4.0859 0 6.8086-2.7227 6.8086-6.8086 0-4.0859-2.7227-6.8086-6.8086-6.8086h-27.234v-20.426c0-12.254 10.211-22.469 22.469-22.469h32.68c10.211 0 19.062 6.8086 21.785 15.66h-25.871c-4.0859 0-6.8086 2.7227-6.8086 6.8086 0 4.0859 2.7227 6.8086 6.8086 6.8086h27.234v10.211h-27.234c-4.0859 0-6.8086 2.7227-6.8086 6.8086 0 4.0859 2.7227 6.8086 6.8086 6.8086h27.234v10.211h-27.234c-4.0859 0-6.8086 2.7227-6.8086 6.8086 0 4.0859 2.7227 6.8086 6.8086 6.8086h27.234v20.426c0 12.254-10.211 22.469-22.469 22.469h-32.68c-10.211 0.67969-18.379-6.1289-21.785-15.66zm-156.59 100.08h8.8516c11.574 0 21.105 7.4883 23.828 18.383h-8.168c-11.574 0-21.105-7.4883-24.512-18.383zm187.91-32.68v11.574h-14.977c-4.0859 0-6.8086 2.7227-6.8086 6.8086 0 4.0859 2.7227 6.8086 6.8086 6.8086h44.254c4.0859 0 6.8086-2.7227 6.8086-6.8086 0-4.0859-2.7227-6.8086-6.8086-6.8086h-15.66v-11.574h95.316c6.8086 0 12.938 3.4023 17.02 8.8516 0.67969 0.67969 1.3633 1.3633 1.3633 2.7227l36.082 68.082h-53.105c0.67969-2.043 0.67969-4.7656 0.67969-7.4883 0-18.383-14.977-32.68-32.68-32.68s-32.68 14.977-32.68 32.68c0 2.7227 0.67969 4.7656 0.67969 7.4883h-196.07l36.082-68.082c0.67969-0.67969 0.67969-1.3633 1.3633-2.043 4.0859-5.4453 10.211-8.8516 17.02-8.8516l95.316 0.003907zm60.594 78.977c-0.67969-2.043-1.3633-4.7656-1.3633-7.4883 0-10.895 8.8516-19.062 19.062-19.062s19.062 8.8516 19.062 19.062c0 2.7227-0.67969 4.7656-1.3633 7.4883zm-170.21 166.12c0 3.4023-2.7227 6.1289-6.1289 6.1289h-29.277c-3.4023 0-6.1289-2.7227-6.1289-6.1289v-10.895h41.531zm196.08-24.508h-159.31v-2.043c0-6.8086 5.4453-12.254 12.254-12.254h135.48c6.8086 0 12.254 5.4453 12.254 12.254v2.043zm78.973 24.508c0 3.4023-2.7227 6.1289-6.1289 6.1289h-29.277c-3.4023 0-6.1289-2.7227-6.1289-6.1289v-10.895h41.531zm17.023-31.316c0 4.0859-3.4023 7.4883-7.4883 7.4883h-74.891v-2.043c0-14.297-11.574-25.871-25.871-25.871h-134.8c-14.297 0-25.871 11.574-25.871 25.871v2.043h-74.891c-4.0859 0-7.4883-3.4023-7.4883-7.4883v-93.953c0-3.4023 0.67969-6.8086 2.7227-10.211l8.8516-17.02h328.16l8.8516 17.02c1.3633 2.7227 2.7227 6.1289 2.7227 10.211zm9.5312-181.1h8.8516c-2.7227 10.211-12.938 18.383-23.828 18.383h-8.8516c2.7227-10.211 12.254-18.383 23.828-18.383z"></path>
            <path
                d="m533.44 248.86c0 16.34-6.1289 32-17.703 43.574-2.7227 2.7227-2.7227 6.8086 0 9.5312 1.3633 1.3633 3.4023 2.043 4.7656 2.043 1.3633 0 3.4023-0.67969 4.7656-2.043 14.297-14.297 21.785-32.68 21.785-53.105 0-19.742-7.4883-38.809-21.785-53.105-2.7227-2.7227-6.8086-2.7227-9.5312 0-2.7227 2.7227-2.7227 6.8086 0 9.5312 11.574 11.574 17.703 27.234 17.703 43.574z"></path>
            <path
                d="m496.68 282.21c1.3633 1.3633 3.4023 2.043 4.7656 2.043 1.3633 0 3.4023-0.67969 4.7656-2.043 18.383-18.383 18.383-49.02 0-67.402-2.7227-2.7227-6.8086-2.7227-9.5312 0-2.7227 2.7227-2.7227 6.8086 0 9.5312 12.938 12.938 12.938 34.723 0 48.34-2.7227 2.7227-2.7227 6.8086 0 9.5312z"></path>
            <path
                d="m476.93 263.15c1.3633 1.3633 3.4023 2.043 4.7656 2.043 1.3633 0 3.4023-0.67969 4.7656-2.043 4.0859-4.0859 6.1289-8.8516 6.1289-14.297 0-5.4453-2.043-10.895-6.1289-14.297-2.7227-2.7227-6.8086-2.7227-9.5312 0-2.7227 2.7227-2.7227 6.8086 0 9.5312 1.3633 1.3633 2.043 2.7227 2.043 4.7656s-0.67969 3.4023-2.043 4.7656c-2.7227 2.7227-2.7227 6.8086 0 9.5312z"></path>
            <path
                d="m279.49 304c2.043 0 3.4023-0.67969 4.7656-2.043 2.7227-2.7227 2.7227-6.8086 0-9.5312-11.574-11.574-17.703-27.234-17.703-43.574 0-16.34 6.1289-32 17.703-43.574 2.7227-2.7227 2.7227-6.8086 0-9.5312-2.7227-2.7227-6.8086-2.7227-9.5312 0-14.297 14.297-21.785 32.68-21.785 53.105 0 19.742 7.4883 38.809 21.785 53.105 1.3633 1.3594 2.7227 2.043 4.7656 2.043z"></path>
            <path
                d="m293.79 282.21c1.3633 1.3633 3.4023 2.043 4.7656 2.043 2.043 0 3.4023-0.67969 4.7656-2.043 2.7227-2.7227 2.7227-6.8086 0-9.5312-6.1289-6.1289-10.211-14.977-10.211-23.828 0-8.8516 3.4023-17.703 10.211-23.828 2.7227-2.7227 2.7227-6.8086 0-9.5312-2.7227-2.7227-6.8086-2.7227-9.5312 0-8.8516 8.8516-13.617 21.105-13.617 33.359 0 12.938 4.7656 24.512 13.617 33.359z"></path>
            <path
                d="m318.3 265.2c2.043 0 3.4023-0.67969 4.7656-2.043 2.7227-2.7227 2.7227-6.8086 0-9.5312-1.3633-1.3633-2.043-2.7227-2.043-4.7656s0.67969-3.4023 2.043-4.7656c2.7227-2.7227 2.7227-6.8086 0-9.5312s-6.8086-2.7227-9.5312 0c-4.0859 4.0859-6.1289 8.8516-6.1289 14.297 0 5.4453 2.043 10.895 6.1289 14.297 0.67969 1.3633 2.7227 2.043 4.7656 2.043z"></path>
        </g>

    </g>
    <g id="IconSvg_iconCarrier">
        <g xmlns="http://www.w3.org/2000/svg">
            <path
                d="m524.59 489.19c-16.34 0-29.277 12.938-29.277 29.277 0 15.66 12.938 29.277 29.277 29.277s29.277-12.938 29.277-29.277c-0.003907-16.344-12.938-29.277-29.277-29.277zm0 44.254c-8.168 0-15.66-6.8086-15.66-15.66s6.8086-15.66 15.66-15.66c8.8516 0 15.66 6.8086 15.66 15.66s-7.4922 15.66-15.66 15.66z"></path>
            <path
                d="m275.41 489.19c-16.34 0-29.277 12.938-29.277 29.277 0 15.66 12.938 29.277 29.277 29.277s29.277-12.938 29.277-29.277c0-16.344-12.938-29.277-29.277-29.277zm0 44.254c-8.168 0-15.66-6.8086-15.66-15.66s6.8086-15.66 15.66-15.66 15.66 6.8086 15.66 15.66-6.8086 15.66-15.66 15.66z"></path>
            <path
                d="m444.25 483.06h-88.508c-11.574 0-21.105 9.5312-21.105 21.105 0 11.574 9.5312 21.105 21.105 21.105h87.828c11.574 0 21.105-9.5312 21.105-21.105-0.003907-11.574-8.8555-21.105-20.426-21.105zm0 27.914h-88.508c-4.0859 0-7.4883-3.4023-7.4883-7.4883s3.4023-7.4883 7.4883-7.4883h87.828c4.0859 0 7.4883 3.4023 7.4883 7.4883-0.003906 4.0859-2.7266 7.4883-6.8086 7.4883z"></path>
            <path
                d="m609.01 385.7c0-4.0859-2.7227-6.8086-6.8086-6.8086h-17.02c-14.297 0-27.234 8.168-34.043 20.426l-18.383-34.723c-0.67969-1.3633-1.3633-2.043-2.043-3.4023-6.1289-9.5312-17.02-15.66-28.594-15.66l-95.312-0.003906v-23.828h9.5312c19.742 0 36.082-16.34 36.082-36.082v-74.211c0-20.426-16.34-36.082-36.082-36.082h-32.68c-19.742 0-36.082 16.34-36.082 36.082v74.211c0 20.426 16.34 36.082 36.082 36.082h9.5312v23.828h-95.316c-12.254 0-23.148 6.1289-29.277 16.34-0.67969 0.67969-1.3633 1.3633-1.3633 2.7227l-18.383 34.723c-6.8086-12.254-19.062-20.426-34.043-20.426l-17.016 0.003906c-4.0859 0-6.8086 2.7227-6.8086 6.8086 0 21.105 17.02 38.809 38.809 38.809h5.4453l-20.426 38.809c-2.7227 4.7656-4.0859 10.895-4.0859 16.34v93.953c0 10.211 7.4883 18.383 17.02 20.426v10.895c0 10.895 8.8516 19.742 19.742 19.742h29.277c10.895 0 19.742-8.8516 19.742-19.742v-10.895h206.29v10.895c0 10.895 8.8516 19.742 19.742 19.742h29.277c10.895 0 19.742-8.8516 19.742-19.742v-10.895c9.5312-2.043 17.02-10.211 17.02-20.426l0.007813-93.957c0-5.4453-1.3633-11.574-4.0859-16.34l-20.426-38.809h6.1289c21.105 0 38.809-17.02 38.809-38.805zm-247.14-93.273h25.871c4.0859 0 6.8086-2.7227 6.8086-6.8086 0-4.0859-2.7227-6.8086-6.8086-6.8086h-27.234v-10.211h27.234c4.0859 0 6.8086-2.7227 6.8086-6.8086 0-4.0859-2.7227-6.8086-6.8086-6.8086h-27.234v-10.211h27.234c4.0859 0 6.8086-2.7227 6.8086-6.8086 0-4.0859-2.7227-6.8086-6.8086-6.8086h-27.234v-20.426c0-12.254 10.211-22.469 22.469-22.469h32.68c10.211 0 19.062 6.8086 21.785 15.66h-25.871c-4.0859 0-6.8086 2.7227-6.8086 6.8086 0 4.0859 2.7227 6.8086 6.8086 6.8086h27.234v10.211h-27.234c-4.0859 0-6.8086 2.7227-6.8086 6.8086 0 4.0859 2.7227 6.8086 6.8086 6.8086h27.234v10.211h-27.234c-4.0859 0-6.8086 2.7227-6.8086 6.8086 0 4.0859 2.7227 6.8086 6.8086 6.8086h27.234v20.426c0 12.254-10.211 22.469-22.469 22.469h-32.68c-10.211 0.67969-18.379-6.1289-21.785-15.66zm-156.59 100.08h8.8516c11.574 0 21.105 7.4883 23.828 18.383h-8.168c-11.574 0-21.105-7.4883-24.512-18.383zm187.91-32.68v11.574h-14.977c-4.0859 0-6.8086 2.7227-6.8086 6.8086 0 4.0859 2.7227 6.8086 6.8086 6.8086h44.254c4.0859 0 6.8086-2.7227 6.8086-6.8086 0-4.0859-2.7227-6.8086-6.8086-6.8086h-15.66v-11.574h95.316c6.8086 0 12.938 3.4023 17.02 8.8516 0.67969 0.67969 1.3633 1.3633 1.3633 2.7227l36.082 68.082h-53.105c0.67969-2.043 0.67969-4.7656 0.67969-7.4883 0-18.383-14.977-32.68-32.68-32.68s-32.68 14.977-32.68 32.68c0 2.7227 0.67969 4.7656 0.67969 7.4883h-196.07l36.082-68.082c0.67969-0.67969 0.67969-1.3633 1.3633-2.043 4.0859-5.4453 10.211-8.8516 17.02-8.8516l95.316 0.003907zm60.594 78.977c-0.67969-2.043-1.3633-4.7656-1.3633-7.4883 0-10.895 8.8516-19.062 19.062-19.062s19.062 8.8516 19.062 19.062c0 2.7227-0.67969 4.7656-1.3633 7.4883zm-170.21 166.12c0 3.4023-2.7227 6.1289-6.1289 6.1289h-29.277c-3.4023 0-6.1289-2.7227-6.1289-6.1289v-10.895h41.531zm196.08-24.508h-159.31v-2.043c0-6.8086 5.4453-12.254 12.254-12.254h135.48c6.8086 0 12.254 5.4453 12.254 12.254v2.043zm78.973 24.508c0 3.4023-2.7227 6.1289-6.1289 6.1289h-29.277c-3.4023 0-6.1289-2.7227-6.1289-6.1289v-10.895h41.531zm17.023-31.316c0 4.0859-3.4023 7.4883-7.4883 7.4883h-74.891v-2.043c0-14.297-11.574-25.871-25.871-25.871h-134.8c-14.297 0-25.871 11.574-25.871 25.871v2.043h-74.891c-4.0859 0-7.4883-3.4023-7.4883-7.4883v-93.953c0-3.4023 0.67969-6.8086 2.7227-10.211l8.8516-17.02h328.16l8.8516 17.02c1.3633 2.7227 2.7227 6.1289 2.7227 10.211zm9.5312-181.1h8.8516c-2.7227 10.211-12.938 18.383-23.828 18.383h-8.8516c2.7227-10.211 12.254-18.383 23.828-18.383z"></path>
            <path
                d="m533.44 248.86c0 16.34-6.1289 32-17.703 43.574-2.7227 2.7227-2.7227 6.8086 0 9.5312 1.3633 1.3633 3.4023 2.043 4.7656 2.043 1.3633 0 3.4023-0.67969 4.7656-2.043 14.297-14.297 21.785-32.68 21.785-53.105 0-19.742-7.4883-38.809-21.785-53.105-2.7227-2.7227-6.8086-2.7227-9.5312 0-2.7227 2.7227-2.7227 6.8086 0 9.5312 11.574 11.574 17.703 27.234 17.703 43.574z"></path>
            <path
                d="m496.68 282.21c1.3633 1.3633 3.4023 2.043 4.7656 2.043 1.3633 0 3.4023-0.67969 4.7656-2.043 18.383-18.383 18.383-49.02 0-67.402-2.7227-2.7227-6.8086-2.7227-9.5312 0-2.7227 2.7227-2.7227 6.8086 0 9.5312 12.938 12.938 12.938 34.723 0 48.34-2.7227 2.7227-2.7227 6.8086 0 9.5312z"></path>
            <path
                d="m476.93 263.15c1.3633 1.3633 3.4023 2.043 4.7656 2.043 1.3633 0 3.4023-0.67969 4.7656-2.043 4.0859-4.0859 6.1289-8.8516 6.1289-14.297 0-5.4453-2.043-10.895-6.1289-14.297-2.7227-2.7227-6.8086-2.7227-9.5312 0-2.7227 2.7227-2.7227 6.8086 0 9.5312 1.3633 1.3633 2.043 2.7227 2.043 4.7656s-0.67969 3.4023-2.043 4.7656c-2.7227 2.7227-2.7227 6.8086 0 9.5312z"></path>
            <path
                d="m279.49 304c2.043 0 3.4023-0.67969 4.7656-2.043 2.7227-2.7227 2.7227-6.8086 0-9.5312-11.574-11.574-17.703-27.234-17.703-43.574 0-16.34 6.1289-32 17.703-43.574 2.7227-2.7227 2.7227-6.8086 0-9.5312-2.7227-2.7227-6.8086-2.7227-9.5312 0-14.297 14.297-21.785 32.68-21.785 53.105 0 19.742 7.4883 38.809 21.785 53.105 1.3633 1.3594 2.7227 2.043 4.7656 2.043z"></path>
            <path
                d="m293.79 282.21c1.3633 1.3633 3.4023 2.043 4.7656 2.043 2.043 0 3.4023-0.67969 4.7656-2.043 2.7227-2.7227 2.7227-6.8086 0-9.5312-6.1289-6.1289-10.211-14.977-10.211-23.828 0-8.8516 3.4023-17.703 10.211-23.828 2.7227-2.7227 2.7227-6.8086 0-9.5312-2.7227-2.7227-6.8086-2.7227-9.5312 0-8.8516 8.8516-13.617 21.105-13.617 33.359 0 12.938 4.7656 24.512 13.617 33.359z"></path>
            <path
                d="m318.3 265.2c2.043 0 3.4023-0.67969 4.7656-2.043 2.7227-2.7227 2.7227-6.8086 0-9.5312-1.3633-1.3633-2.043-2.7227-2.043-4.7656s0.67969-3.4023 2.043-4.7656c2.7227-2.7227 2.7227-6.8086 0-9.5312s-6.8086-2.7227-9.5312 0c-4.0859 4.0859-6.1289 8.8516-6.1289 14.297 0 5.4453 2.043 10.895 6.1289 14.297 0.67969 1.3633 2.7227 2.043 4.7656 2.043z"></path>
        </g>

    </g>
</svg>